<?xml version="1.0" standalone="no"?>
<!DOCTYPE svg PUBLIC "-//W3C//DTD SVG 20010904//EN"
 "http://www.w3.org/TR/2001/REC-SVG-20010904/DTD/svg10.dtd">
<svg version="1.0" xmlns="http://www.w3.org/2000/svg"
 width="260.000000pt" height="260.000000pt" viewBox="0 0 260.000000 260.000000"
 preserveAspectRatio="xMidYMid meet">
<metadata>
Created by potrace 1.11, written by Peter Selinger 2001-2013
</metadata>
<g transform="translate(0.000000,260.000000) scale(0.100000,-0.100000)"
fill="#000000" stroke="none">
<path d="M1950 2195 c-36 -13 -89 -15 -277 -13 -228 3 -232 3 -255 -19 -14
-14 -37 -23 -55 -23 -19 0 -55 -17 -99 -45 -37 -25 -73 -45 -80 -45 -16 0 -89
-81 -139 -154 -39 -57 -39 -57 -48 -194 -11 -150 -4 -211 34 -288 26 -56 112
-119 189 -140 90 -25 100 -31 100 -60 0 -18 -12 -38 -37 -62 l-37 -35 -76 9
c-92 10 -193 9 -420 -4 -177 -11 -386 -50 -467 -88 -17 -9 -52 -42 -77 -74
-26 -32 -70 -82 -100 -109 -80 -78 -82 -83 -57 -190 26 -113 49 -159 102 -205
58 -50 117 -76 169 -76 25 0 99 13 165 29 76 19 173 33 265 40 204 16 405 39
470 55 30 8 96 19 145 26 180 24 285 41 307 49 13 5 45 27 72 49 27 23 68 45
93 52 25 6 62 22 82 35 19 14 45 25 57 25 12 0 33 9 48 21 30 23 101 120 141
192 29 53 29 82 -3 184 -15 52 -66 106 -358 385 -62 59 -124 128 -124 138 0
20 34 25 215 32 105 3 208 9 230 13 21 4 83 2 137 -5 90 -12 101 -12 139 5 22
10 58 39 80 63 69 79 100 235 61 312 -15 30 -27 38 -92 61 -41 14 -93 33 -115
44 -56 26 -318 32 -385 10z"/>
</g>
</svg>
